#!OML:ASF E:\emotionWalksFemale\Project 1\Capture day 1\Session 1\Female1.ASF
:FULLY-SPECIFIED
:DEGREES
169
root 8.50698 15.0317 41.4517 178.67 -16.212 178.515
lowerback 5.25288 2.5721 -0.343922
upperback -3.39209 3.31541 -0.878697
thorax -6.44628 1.60821 -1.07688
lowerneck -4.19363 13.8089 7.96428
upperneck 10.6601 18.093 -2.29889
head 4.81477 9.05029 -0.816108
rclavicle 2.71465e-014 -6.06293e-015
rhumerus -46.2352 14.845 -97.6124
rradius 32.8961
rwrist 14.3612
rhand -5.95227 -51.3131
rfingers 7.12502
rthumb 19.8782 -80.3165
lclavicle 2.71465e-014 -6.06293e-015
lhumerus -42.0055 7.54095 78.6068
lradius 34.1659
lwrist -14.148
lhand -7.45814 -32.1321
lfingers 7.12502
lthumb 18.4302 -2.98523
rfemur -1.92748 6.31738 23.2873
rtibia 31.1184
rfoot -31.8601 -28.0453
rtoes 12.6989
lfemur -6.83106 -22.1179 -25.4784
ltibia 30.3963
lfoot -25.8146 7.79693
ltoes -33.7512
170
root 8.50449 15.0326 41.4525 178.696 -16.1783 178.484
lowerback 5.27464 2.61243 -0.348791
upperback -3.45837 3.36203 -0.936995
thorax -6.52526 1.62806 -1.14313
lowerneck -4.42679 13.6724 7.89464
upperneck 11.1157 17.8606 -1.99742
head 4.94929 8.94287 -0.705422
rclavicle -1.51449e-014 2.38542e-015
rhumerus -45.896 14.476 -97.3206
rradius 33.3123
rwrist 11.825
rhand -4.95454 -51.8644
rfingers 7.12502
rthumb 20.8371 -80.7655
lclavicle -1.51449e-014 2.38542e-015
lhumerus -42.1489 8.38583 78.0283
lradius 34.2606
lwrist -15.0401
lhand -6.99756 -32.4509
lfingers 7.12502
lthumb 18.8732 -3.3465
rfemur -1.89516 6.26588 23.2192
rtibia 31.0205
rfoot -31.7885 -28.1194
rtoes 12.1062
lfemur -6.874 -22.1114 -25.5176
ltibia 30.4708
lfoot -25.8487 7.84041
ltoes -33.1986
171
root 8.50262 15.0333 41.4544 178.661 -16.1021 178.677
lowerback 5.29732 2.6777 -0.110909
upperback -3.52616 3.46539 -0.961917
thorax -6.59284 1.66631 -1.31614
lowerneck -4.54288 13.4933 7.87838
upperneck 11.3536 17.589 -1.83351
head 5.01327 8.81452 -0.661554
rclavicle -7.24073e-014 -8.54774e-015
rhumerus -45.8757 14.3153 -97.4097
rradius 33.2726
rwrist 11.9513
rhand -5.79509 -51.096
rfingers 7.12502
rthumb 20.0293 -80.0837
lclavicle -7.24073e-014 -8.54774e-015
lhumerus -42.1858 8.5509 77.8315
lradius 34.3717
lwrist -15.0156
lhand -6.9775 -32.6149
lfingers 7.12502
lthumb 18.8925 -3.51237
rfemur -1.84978 6.35324 23.4151
rtibia 30.8723
rfoot -31.521 -28.2731
rtoes 11.2646
lfemur -6.96835 -22.057 -25.3118
ltibia 30.6056
lfoot -25.9111 7.88353
ltoes -33.9331
172
root 8.50139 15.0333 41.4549 178.561 -16.0461 178.957
lowerback 5.32308 2.72057 0.194273
upperback -3.5912 3.54484 -0.988785
thorax -6.65473 1.68952 -1.52622
lowerneck -4.46043 13.253 8.10603
upperneck 11.3094 17.2712 -2.03197
head 5.00893 8.65718 -0.781996
rclavicle 4.44781e-014 1.68967e-014
rhumerus -45.8575 13.929 -97.397
rradius 33.04
rwrist 13.1317
rhand -5.28933 -50.9639
rfingers 7.12502
rthumb 20.5154 -79.8999
lclavicle 4.44781e-014 1.68967e-014
lhumerus -42.2469 8.2747 77.7654
lradius 34.3864
lwrist -14.171
lhand -7.19729 -32.7082
lfingers 7.12502
lthumb 18.6811 -3.58526
rfemur -1.74105 6.42433 23.7149
rtibia 30.6867
rfoot -31.2241 -28.2145
rtoes 10.9488
lfemur -7.05492 -21.8181 -24.983
ltibia 30.7844
lfoot -26.0419 7.5847
ltoes -32.9101
173
root 8.5021 15.0312 41.4555 178.428 -16.0527 179.117
lowerback 5.44992 2.77534 0.32493
upperback -3.66861 3.62525 -1.01941
thorax -6.79807 1.71949 -1.64965
lowerneck -4.65778 12.9983 7.99016
upperneck 11.7721 16.8623 -1.59997
head 5.11843 8.47007 -0.645914
rclavicle -3.17062e-014 1.98785e-016
rhumerus -46.0996 13.8866 -97.5679
rradius 32.6328
rwrist 15.0856
rhand -5.8308 -50.3685
rfingers 7.12502
rthumb 19.995 -79.3598
lclavicle -3.17062e-014 1.98785e-016
lhumerus -42.3962 8.3205 77.5763
lradius 34.3744
lwrist -13.9718
lhand -7.37779 -32.8533
lfingers 7.12502
lthumb 18.5074 -3.7137
rfemur -1.57292 6.448 23.9067
rtibia 30.5299
rfoot -31.129 -28.1609
rtoes 11.0021
lfemur -7.0599 -21.573 -24.799
ltibia 30.9484
lfoot -26.1349 7.28008
ltoes -32.7951
